<svg width="1445" height="602" viewBox="0 0 1445 602" fill="none" xmlns="http://www.w3.org/2000/svg">
<g clip-path="url(#clip0_92_169)">
<path d="M214.257 240.743H253V415H78.7432V376.257H40V202H214.257V240.743ZM87.4209 249.421V367.579H205.579V249.421H87.4209Z" fill="black"/>
<path d="M181.387 302.452H161.313V295.352H135.018V321.648H161.313V314.46H181.387V341.721H114.944V275.279H181.387V302.452Z" fill="black"/>
<path d="M404.583 410.676C395.514 410.676 387.338 409.338 380.053 406.662C372.917 403.837 366.822 399.823 361.767 394.62C356.861 389.417 353.07 383.098 350.394 375.665C347.718 368.232 346.38 359.832 346.38 350.466C346.38 341.1 347.718 332.7 350.394 325.267C353.07 317.834 356.861 311.515 361.767 306.312C366.822 301.109 372.917 297.169 380.053 294.493C387.338 291.668 395.44 290.256 404.36 290.256C416.997 290.256 427.106 292.858 434.688 298.061C442.419 303.116 448.291 309.88 452.305 318.354L426.883 332.18C424.802 327.72 422.051 324.003 418.632 321.03C415.361 318.057 410.604 316.57 404.36 316.57C396.778 316.57 390.906 318.8 386.743 323.26C382.729 327.571 380.722 333.518 380.722 341.1V359.832C380.722 367.414 382.729 373.435 386.743 377.895C390.906 382.206 396.927 384.362 404.806 384.362C411.199 384.362 416.179 382.875 419.747 379.902C423.464 376.929 426.586 373.063 429.113 368.306L454.089 382.578C449.926 391.052 443.831 397.891 435.803 403.094C427.924 408.149 417.517 410.676 404.583 410.676ZM536.735 410.676C517.408 410.676 502.765 405.324 492.804 394.62C482.843 383.916 477.863 369.347 477.863 350.912C477.863 341.546 479.127 333.146 481.654 325.713C484.33 318.131 488.047 311.738 492.804 306.535C497.71 301.183 503.582 297.169 510.421 294.493C517.408 291.668 525.213 290.256 533.836 290.256C542.459 290.256 550.189 291.668 557.028 294.493C563.867 297.169 569.665 301.034 574.422 306.089C579.179 311.144 582.822 317.313 585.349 324.598C588.025 331.734 589.363 339.762 589.363 348.682V358.494H510.644V360.501C510.644 367.934 512.948 373.955 517.557 378.564C522.166 383.024 528.93 385.254 537.85 385.254C544.689 385.254 550.561 383.99 555.467 381.463C560.373 378.787 564.61 375.293 568.178 370.982L586.018 390.383C581.558 395.884 575.314 400.641 567.286 404.655C559.258 408.669 549.074 410.676 536.735 410.676ZM534.059 313.894C526.923 313.894 521.199 316.124 516.888 320.584C512.725 324.895 510.644 330.768 510.644 338.201V339.985H557.028V338.201C557.028 330.619 554.947 324.672 550.784 320.361C546.77 316.05 541.195 313.894 534.059 313.894ZM616.928 382.355H643.465V318.577H616.928V292.932H676.469V325.49H678.03C679.07 321.327 680.483 317.313 682.267 313.448C684.199 309.434 686.578 305.94 689.403 302.967C692.376 299.845 695.944 297.392 700.107 295.608C704.269 293.824 709.175 292.932 714.825 292.932H725.752V323.26H701.222C693.045 323.26 686.875 325.713 682.713 330.619C678.55 335.376 676.469 341.249 676.469 348.236V382.355H714.379V408H616.928V382.355ZM809.959 408C798.065 408 789.22 404.878 783.422 398.634C777.624 392.39 774.725 384.436 774.725 374.773V318.577H743.505V292.932H763.798C768.704 292.932 772.197 291.966 774.279 290.033C776.36 288.1 777.401 284.532 777.401 279.329V252.346H807.729V292.932H852.552V318.577H807.729V382.355H852.552V408H809.959ZM941.888 278.214C934.454 278.214 929.251 276.727 926.278 273.754C923.453 270.632 922.041 266.915 922.041 262.604V256.137C922.041 251.677 923.453 247.96 926.278 244.987C929.251 242.014 934.454 240.527 941.888 240.527C949.321 240.527 954.45 242.014 957.275 244.987C960.248 247.96 961.735 251.677 961.735 256.137V262.604C961.735 266.915 960.248 270.632 957.275 273.754C954.45 276.727 949.321 278.214 941.888 278.214ZM888.814 382.355H925.386V318.577H888.814V292.932H958.39V382.355H992.286V408H888.814V382.355ZM1017.4 382.355H1051.29V318.577H1015.17V292.932H1051.29V276.207C1051.29 266.395 1054.12 258.441 1059.77 252.346C1065.57 246.102 1074.49 242.98 1086.53 242.98H1125.55V268.625H1084.3V292.932H1125.55V318.577H1084.3V382.355H1120.42V408H1017.4V382.355ZM1231.17 292.932H1264.84L1210.65 426.509C1207.23 434.983 1202.7 441.45 1197.05 445.91C1191.4 450.37 1183.67 452.6 1173.86 452.6H1151.11V426.955H1178.76L1185.9 407.331L1139.51 292.932H1174.97L1191.7 341.323L1202.18 374.773H1203.96L1214 341.323L1231.17 292.932ZM1356.63 387.038H1355.07C1352.09 394.025 1347.93 399.749 1342.58 404.209C1337.38 408.52 1330.17 410.676 1320.95 410.676C1314.56 410.676 1308.68 409.487 1303.33 407.108C1298.13 404.729 1293.59 401.087 1289.73 396.181C1286.01 391.275 1283.04 385.031 1280.81 377.449C1278.73 369.867 1277.69 360.873 1277.69 350.466C1277.69 340.059 1278.73 331.065 1280.81 323.483C1283.04 315.901 1286.01 309.657 1289.73 304.751C1293.59 299.845 1298.13 296.203 1303.33 293.824C1308.68 291.445 1314.56 290.256 1320.95 290.256C1325.56 290.256 1329.65 290.851 1333.21 292.04C1336.78 293.229 1339.9 294.865 1342.58 296.946C1345.4 299.027 1347.78 301.555 1349.72 304.528C1351.8 307.353 1353.58 310.475 1355.07 313.894H1356.63V242.98H1389.63V408H1356.63V387.038ZM1335.22 385.031C1341.02 385.031 1346 383.619 1350.16 380.794C1354.47 377.969 1356.63 373.509 1356.63 367.414V333.518C1356.63 327.423 1354.47 322.963 1350.16 320.138C1346 317.313 1341.02 315.901 1335.22 315.901C1327.79 315.901 1322.06 318.205 1318.05 322.814C1314.04 327.274 1312.03 333.518 1312.03 341.546V359.386C1312.03 367.414 1314.04 373.732 1318.05 378.341C1322.06 382.801 1327.79 385.031 1335.22 385.031Z" fill="black"/>
</g>
<defs>
<clipPath id="clip0_92_169">
<rect width="1445" height="602" fill="white"/>
</clipPath>
</defs>
</svg>
